# xmcd
# Copyright (C) 1995-1998 Ti Kan
#
# Track frame offsets:
#       150
#       39067
#       59871
#       68908
#       95017
#
# Disc length: 2990 seconds
#
# Revision: 0
# Processed by: cddbd v1.5.2PL0 Copyright (c) Steve Scherf et al.
# Submitted via: CD-Import v1.0
#
DISCID=420bac05
DTITLE=The Medusa Touch - Little Girl Lost
DYEAR=1900
DGENRE=
TTITLE0=Little Girl Lost - Over and Out
TTITLE1=Rise (Intro)/ After 2 Death
TTITLE2=Napalm For Your Honeymoon With Satan
TTITLE3=All I Have and Waitin' For You
TTITLE4=Data Track
EXTD=
EXTT0=
EXTT1=
EXTT2=
EXTT3=
EXTT4=
PLAYORDER=
